# xmcd CD database file
#
# Track frame offsets:
#	150
#	14809
#	27783
#	40179
#	51295
#	63556
#	73594
#	87149
#	108963
#	125288
#	133207
#	152158
#	161673
#	174864
#	198338
#	213480
#	230607
#
# Disc length: 3281 seconds
#
# Revision: 1
# Processed by: cddbd v1.5.2PL0 Copyright (c) Steve Scherf et al.
# Submitted via: CDex 1.70beta1
#
DISCID=ec0ccf11
DTITLE=Ennio Morricone - Ennio Morricone Gold Edition Disc II
DYEAR=2007
DGENRE=New Age
TTITLE0=Il Mio Nome Enessuno
TTITLE1=Per Qualche Dollaro In Piu
TTITLE2=Il Buono, Il Brutto, Il Gattivo
TTITLE3=Companeros
TTITLE4=I Crudeli
TTITLE5=La Ballata Di Hank Mccain
TTITLE6=Un Esercito Di 5 Uomini
TTITLE7=Il Mercenario
TTITLE8=La Scoperta Dell'America
TTITLE9=La Ragazza E Il Generale
TTITLE10=Il Trio Infernale
TTITLE11=Tema Per Dria
TTITLE12=Belinda May
TTITLE13=Abolicao
TTITLE14=Tre Colonne In Cronaca
TTITLE15=E Finalmente
TTITLE16=Indagine
EXTD=YEAR: 2007
EXTT0=
EXTT1=
EXTT2=
EXTT3=
EXTT4=
EXTT5=
EXTT6=
EXTT7=
EXTT8=
EXTT9=
EXTT10=
EXTT11=
EXTT12=
EXTT13=
EXTT14=
EXTT15=
EXTT16=
PLAYORDER=
